<mxfile host="Electron" agent="Mozilla/5.0 (X11; Linux x86_64) AppleWebKit/537.36 (KHTML, like Gecko) draw.io/28.0.6 Chrome/138.0.7204.100 Electron/37.2.3 Safari/537.36" version="28.0.6">
  <diagram name="Page-1" id="Pl_cNt3b2kuoiKx6c0m2">
    <mxGraphModel dx="1532" dy="1142" grid="1" gridSize="10" guides="1" tooltips="1" connect="1" arrows="1" fold="1" page="1" pageScale="1" pageWidth="827" pageHeight="1169" math="0" shadow="0">
      <root>
        <mxCell id="0" />
        <mxCell id="1" parent="0" />
        <mxCell id="u0r1JOzPj--q7MegoqgF-204" value="" style="rounded=0;whiteSpace=wrap;html=1;strokeColor=none;fillColor=default;movable=0;resizable=0;rotatable=0;deletable=0;editable=0;locked=1;connectable=0;" parent="1" vertex="1">
          <mxGeometry width="820" height="1160" as="geometry" />
        </mxCell>
        <mxCell id="u0r1JOzPj--q7MegoqgF-194" value="" style="group;fillColor=#FFFFFF;rounded=1;shadow=1;" parent="1" vertex="1" connectable="0">
          <mxGeometry x="440" y="80" width="320" height="300" as="geometry" />
        </mxCell>
        <mxCell id="u0r1JOzPj--q7MegoqgF-174" value="" style="rounded=1;whiteSpace=wrap;html=1;strokeWidth=1;strokeColor=none;fillColor=none;shadow=1;movable=1;resizable=1;rotatable=1;deletable=1;editable=1;locked=0;connectable=1;" parent="u0r1JOzPj--q7MegoqgF-194" vertex="1">
          <mxGeometry width="320" height="300" as="geometry" />
        </mxCell>
        <mxCell id="u0r1JOzPj--q7MegoqgF-52" value="" style="rounded=0;whiteSpace=wrap;html=1;fillColor=none;" parent="u0r1JOzPj--q7MegoqgF-194" vertex="1">
          <mxGeometry x="200" y="140" width="20" height="20" as="geometry" />
        </mxCell>
        <mxCell id="u0r1JOzPj--q7MegoqgF-53" value="" style="rounded=0;whiteSpace=wrap;html=1;fillColor=none;" parent="u0r1JOzPj--q7MegoqgF-194" vertex="1">
          <mxGeometry x="220" y="140" width="20" height="20" as="geometry" />
        </mxCell>
        <mxCell id="u0r1JOzPj--q7MegoqgF-54" value="" style="rounded=0;whiteSpace=wrap;html=1;fillColor=none;" parent="u0r1JOzPj--q7MegoqgF-194" vertex="1">
          <mxGeometry x="240" y="140" width="20" height="20" as="geometry" />
        </mxCell>
        <mxCell id="u0r1JOzPj--q7MegoqgF-55" value="" style="rounded=0;whiteSpace=wrap;html=1;fillColor=none;" parent="u0r1JOzPj--q7MegoqgF-194" vertex="1">
          <mxGeometry x="260" y="140" width="20" height="20" as="geometry" />
        </mxCell>
        <mxCell id="u0r1JOzPj--q7MegoqgF-56" value="&lt;font style=&quot;font-size: 8px;&quot;&gt;0&lt;/font&gt;" style="text;html=1;align=center;verticalAlign=middle;whiteSpace=wrap;rounded=0;" parent="u0r1JOzPj--q7MegoqgF-194" vertex="1">
          <mxGeometry x="260" y="160" width="20" height="20" as="geometry" />
        </mxCell>
        <mxCell id="u0r1JOzPj--q7MegoqgF-57" value="&lt;font style=&quot;font-size: 8px;&quot;&gt;3&lt;/font&gt;" style="text;html=1;align=center;verticalAlign=middle;whiteSpace=wrap;rounded=0;" parent="u0r1JOzPj--q7MegoqgF-194" vertex="1">
          <mxGeometry x="200" y="160" width="20" height="20" as="geometry" />
        </mxCell>
        <mxCell id="u0r1JOzPj--q7MegoqgF-58" value="" style="rounded=0;whiteSpace=wrap;html=1;fillColor=none;" parent="u0r1JOzPj--q7MegoqgF-194" vertex="1">
          <mxGeometry x="100" y="140" width="20" height="20" as="geometry" />
        </mxCell>
        <mxCell id="u0r1JOzPj--q7MegoqgF-59" value="" style="rounded=0;whiteSpace=wrap;html=1;fillColor=none;" parent="u0r1JOzPj--q7MegoqgF-194" vertex="1">
          <mxGeometry x="120" y="140" width="20" height="20" as="geometry" />
        </mxCell>
        <mxCell id="u0r1JOzPj--q7MegoqgF-60" value="" style="rounded=0;whiteSpace=wrap;html=1;fillColor=none;" parent="u0r1JOzPj--q7MegoqgF-194" vertex="1">
          <mxGeometry x="140" y="140" width="20" height="20" as="geometry" />
        </mxCell>
        <mxCell id="u0r1JOzPj--q7MegoqgF-61" value="" style="rounded=0;whiteSpace=wrap;html=1;fillColor=none;" parent="u0r1JOzPj--q7MegoqgF-194" vertex="1">
          <mxGeometry x="160" y="140" width="20" height="20" as="geometry" />
        </mxCell>
        <mxCell id="u0r1JOzPj--q7MegoqgF-62" value="&lt;font style=&quot;font-size: 8px;&quot;&gt;4&lt;/font&gt;" style="text;html=1;align=center;verticalAlign=middle;whiteSpace=wrap;rounded=0;" parent="u0r1JOzPj--q7MegoqgF-194" vertex="1">
          <mxGeometry x="160" y="160" width="20" height="20" as="geometry" />
        </mxCell>
        <mxCell id="u0r1JOzPj--q7MegoqgF-63" value="&lt;font style=&quot;font-size: 8px;&quot;&gt;7&lt;/font&gt;" style="text;html=1;align=center;verticalAlign=middle;whiteSpace=wrap;rounded=0;" parent="u0r1JOzPj--q7MegoqgF-194" vertex="1">
          <mxGeometry x="100" y="160" width="20" height="20" as="geometry" />
        </mxCell>
        <mxCell id="u0r1JOzPj--q7MegoqgF-64" value="" style="rounded=0;whiteSpace=wrap;html=1;fillColor=none;" parent="u0r1JOzPj--q7MegoqgF-194" vertex="1">
          <mxGeometry x="200" y="200" width="20" height="20" as="geometry" />
        </mxCell>
        <mxCell id="u0r1JOzPj--q7MegoqgF-65" value="" style="rounded=0;whiteSpace=wrap;html=1;fillColor=none;" parent="u0r1JOzPj--q7MegoqgF-194" vertex="1">
          <mxGeometry x="220" y="200" width="20" height="20" as="geometry" />
        </mxCell>
        <mxCell id="u0r1JOzPj--q7MegoqgF-66" value="" style="rounded=0;whiteSpace=wrap;html=1;fillColor=none;" parent="u0r1JOzPj--q7MegoqgF-194" vertex="1">
          <mxGeometry x="240" y="200" width="20" height="20" as="geometry" />
        </mxCell>
        <mxCell id="u0r1JOzPj--q7MegoqgF-67" value="" style="rounded=0;whiteSpace=wrap;html=1;fillColor=none;" parent="u0r1JOzPj--q7MegoqgF-194" vertex="1">
          <mxGeometry x="260" y="200" width="20" height="20" as="geometry" />
        </mxCell>
        <mxCell id="u0r1JOzPj--q7MegoqgF-68" value="&lt;font style=&quot;font-size: 8px;&quot;&gt;0&lt;/font&gt;" style="text;html=1;align=center;verticalAlign=middle;whiteSpace=wrap;rounded=0;" parent="u0r1JOzPj--q7MegoqgF-194" vertex="1">
          <mxGeometry x="260" y="220" width="20" height="20" as="geometry" />
        </mxCell>
        <mxCell id="u0r1JOzPj--q7MegoqgF-69" value="&lt;font style=&quot;font-size: 8px;&quot;&gt;3&lt;/font&gt;" style="text;html=1;align=center;verticalAlign=middle;whiteSpace=wrap;rounded=0;" parent="u0r1JOzPj--q7MegoqgF-194" vertex="1">
          <mxGeometry x="200" y="220" width="20" height="20" as="geometry" />
        </mxCell>
        <mxCell id="u0r1JOzPj--q7MegoqgF-70" value="" style="rounded=0;whiteSpace=wrap;html=1;fillColor=none;" parent="u0r1JOzPj--q7MegoqgF-194" vertex="1">
          <mxGeometry x="100" y="200" width="20" height="20" as="geometry" />
        </mxCell>
        <mxCell id="u0r1JOzPj--q7MegoqgF-71" value="" style="rounded=0;whiteSpace=wrap;html=1;fillColor=none;" parent="u0r1JOzPj--q7MegoqgF-194" vertex="1">
          <mxGeometry x="120" y="200" width="20" height="20" as="geometry" />
        </mxCell>
        <mxCell id="u0r1JOzPj--q7MegoqgF-72" value="" style="rounded=0;whiteSpace=wrap;html=1;fillColor=none;" parent="u0r1JOzPj--q7MegoqgF-194" vertex="1">
          <mxGeometry x="140" y="200" width="20" height="20" as="geometry" />
        </mxCell>
        <mxCell id="u0r1JOzPj--q7MegoqgF-73" value="" style="rounded=0;whiteSpace=wrap;html=1;fillColor=none;" parent="u0r1JOzPj--q7MegoqgF-194" vertex="1">
          <mxGeometry x="160" y="200" width="20" height="20" as="geometry" />
        </mxCell>
        <mxCell id="u0r1JOzPj--q7MegoqgF-74" value="&lt;font style=&quot;font-size: 8px;&quot;&gt;4&lt;/font&gt;" style="text;html=1;align=center;verticalAlign=middle;whiteSpace=wrap;rounded=0;" parent="u0r1JOzPj--q7MegoqgF-194" vertex="1">
          <mxGeometry x="160" y="220" width="20" height="20" as="geometry" />
        </mxCell>
        <mxCell id="u0r1JOzPj--q7MegoqgF-75" value="&lt;font style=&quot;font-size: 8px;&quot;&gt;7&lt;/font&gt;" style="text;html=1;align=center;verticalAlign=middle;whiteSpace=wrap;rounded=0;" parent="u0r1JOzPj--q7MegoqgF-194" vertex="1">
          <mxGeometry x="100" y="220" width="20" height="20" as="geometry" />
        </mxCell>
        <mxCell id="u0r1JOzPj--q7MegoqgF-76" value="&lt;font style=&quot;font-size: 10px;&quot;&gt;&lt;b&gt;current: DRIVER_NEEDS_RESET&lt;/b&gt;&lt;/font&gt;&lt;div&gt;&lt;font style=&quot;font-size: 10px;&quot;&gt;&lt;b&gt;previous:&amp;nbsp; DRIVER_OK&lt;/b&gt;&lt;/font&gt;&lt;/div&gt;" style="text;html=1;align=center;verticalAlign=middle;whiteSpace=wrap;rounded=0;" parent="u0r1JOzPj--q7MegoqgF-194" vertex="1">
          <mxGeometry x="40" y="250" width="240" height="30" as="geometry" />
        </mxCell>
        <mxCell id="u0r1JOzPj--q7MegoqgF-77" value="" style="ellipse;whiteSpace=wrap;html=1;aspect=fixed;strokeColor=none;fillColor=#000000;" parent="u0r1JOzPj--q7MegoqgF-194" vertex="1">
          <mxGeometry x="265" y="145" width="10" height="10" as="geometry" />
        </mxCell>
        <mxCell id="u0r1JOzPj--q7MegoqgF-78" value="" style="ellipse;whiteSpace=wrap;html=1;aspect=fixed;strokeColor=none;fillColor=#000000;" parent="u0r1JOzPj--q7MegoqgF-194" vertex="1">
          <mxGeometry x="245" y="145" width="10" height="10" as="geometry" />
        </mxCell>
        <mxCell id="u0r1JOzPj--q7MegoqgF-79" value="" style="ellipse;whiteSpace=wrap;html=1;aspect=fixed;strokeColor=none;fillColor=#000000;" parent="u0r1JOzPj--q7MegoqgF-194" vertex="1">
          <mxGeometry x="125" y="145" width="10" height="10" as="geometry" />
        </mxCell>
        <mxCell id="u0r1JOzPj--q7MegoqgF-80" value="" style="ellipse;whiteSpace=wrap;html=1;aspect=fixed;strokeColor=none;fillColor=#000000;" parent="u0r1JOzPj--q7MegoqgF-194" vertex="1">
          <mxGeometry x="125" y="205" width="10" height="10" as="geometry" />
        </mxCell>
        <mxCell id="u0r1JOzPj--q7MegoqgF-81" value="&lt;font style=&quot;font-size: 10px;&quot;&gt;Status&lt;/font&gt;" style="text;html=1;align=left;verticalAlign=middle;whiteSpace=wrap;rounded=0;" parent="u0r1JOzPj--q7MegoqgF-194" vertex="1">
          <mxGeometry x="40" y="140" width="60" height="20" as="geometry" />
        </mxCell>
        <mxCell id="u0r1JOzPj--q7MegoqgF-82" value="&lt;font style=&quot;font-size: 10px;&quot;&gt;CurStatus&lt;/font&gt;" style="text;html=1;align=left;verticalAlign=middle;whiteSpace=wrap;rounded=0;" parent="u0r1JOzPj--q7MegoqgF-194" vertex="1">
          <mxGeometry x="40" y="200" width="60" height="20" as="geometry" />
        </mxCell>
        <mxCell id="u0r1JOzPj--q7MegoqgF-84" value="" style="ellipse;whiteSpace=wrap;html=1;aspect=fixed;strokeColor=none;fillColor=#000000;" parent="u0r1JOzPj--q7MegoqgF-194" vertex="1">
          <mxGeometry x="225" y="145" width="10" height="10" as="geometry" />
        </mxCell>
        <mxCell id="u0r1JOzPj--q7MegoqgF-85" value="" style="ellipse;whiteSpace=wrap;html=1;aspect=fixed;strokeColor=none;fillColor=#000000;" parent="u0r1JOzPj--q7MegoqgF-194" vertex="1">
          <mxGeometry x="205" y="145" width="10" height="10" as="geometry" />
        </mxCell>
        <mxCell id="u0r1JOzPj--q7MegoqgF-168" value="&lt;font style=&quot;font-size: 8px;&quot;&gt;ACKNOWLEDGE&lt;/font&gt;" style="text;html=1;align=left;verticalAlign=middle;whiteSpace=wrap;rounded=0;rotation=-90;" parent="u0r1JOzPj--q7MegoqgF-194" vertex="1">
          <mxGeometry x="230" y="70" width="80" height="20" as="geometry" />
        </mxCell>
        <mxCell id="u0r1JOzPj--q7MegoqgF-169" value="&lt;font style=&quot;font-size: 8px;&quot;&gt;DRIVER&lt;/font&gt;" style="text;html=1;align=left;verticalAlign=middle;whiteSpace=wrap;rounded=0;rotation=-90;" parent="u0r1JOzPj--q7MegoqgF-194" vertex="1">
          <mxGeometry x="210" y="70" width="80" height="20" as="geometry" />
        </mxCell>
        <mxCell id="u0r1JOzPj--q7MegoqgF-170" value="&lt;font style=&quot;font-size: 8px;&quot;&gt;DRIVER_OK&lt;/font&gt;" style="text;html=1;align=left;verticalAlign=middle;whiteSpace=wrap;rounded=0;rotation=-90;" parent="u0r1JOzPj--q7MegoqgF-194" vertex="1">
          <mxGeometry x="190" y="70" width="80" height="20" as="geometry" />
        </mxCell>
        <mxCell id="u0r1JOzPj--q7MegoqgF-171" value="&lt;font style=&quot;font-size: 8px;&quot;&gt;FEATURES_OK&lt;/font&gt;" style="text;html=1;align=left;verticalAlign=middle;whiteSpace=wrap;rounded=0;rotation=-90;" parent="u0r1JOzPj--q7MegoqgF-194" vertex="1">
          <mxGeometry x="170" y="70" width="80" height="20" as="geometry" />
        </mxCell>
        <mxCell id="u0r1JOzPj--q7MegoqgF-172" value="&lt;font style=&quot;font-size: 8px;&quot;&gt;FAILED&lt;/font&gt;" style="text;html=1;align=left;verticalAlign=middle;whiteSpace=wrap;rounded=0;rotation=-90;" parent="u0r1JOzPj--q7MegoqgF-194" vertex="1">
          <mxGeometry x="70" y="70" width="80" height="20" as="geometry" />
        </mxCell>
        <mxCell id="u0r1JOzPj--q7MegoqgF-173" value="&lt;font style=&quot;font-size: 8px;&quot;&gt;DEVICE_NEEDS_RESET&lt;/font&gt;" style="text;html=1;align=left;verticalAlign=middle;whiteSpace=wrap;rounded=0;rotation=-90;" parent="u0r1JOzPj--q7MegoqgF-194" vertex="1">
          <mxGeometry x="80" y="60" width="100" height="20" as="geometry" />
        </mxCell>
        <mxCell id="u0r1JOzPj--q7MegoqgF-197" value="" style="group;fillColor=#FFFFFF;rounded=1;shadow=1;" parent="1" vertex="1" connectable="0">
          <mxGeometry x="60" y="80" width="320" height="300" as="geometry" />
        </mxCell>
        <mxCell id="u0r1JOzPj--q7MegoqgF-175" value="" style="rounded=1;whiteSpace=wrap;html=1;strokeWidth=1;strokeColor=none;fillColor=none;shadow=1;movable=1;resizable=1;rotatable=1;deletable=1;editable=1;locked=0;connectable=1;" parent="u0r1JOzPj--q7MegoqgF-197" vertex="1">
          <mxGeometry width="320" height="300" as="geometry" />
        </mxCell>
        <mxCell id="u0r1JOzPj--q7MegoqgF-86" value="" style="rounded=0;whiteSpace=wrap;html=1;fillColor=none;" parent="u0r1JOzPj--q7MegoqgF-197" vertex="1">
          <mxGeometry x="200" y="140" width="20" height="20" as="geometry" />
        </mxCell>
        <mxCell id="u0r1JOzPj--q7MegoqgF-87" value="" style="rounded=0;whiteSpace=wrap;html=1;fillColor=none;" parent="u0r1JOzPj--q7MegoqgF-197" vertex="1">
          <mxGeometry x="220" y="140" width="20" height="20" as="geometry" />
        </mxCell>
        <mxCell id="u0r1JOzPj--q7MegoqgF-88" value="" style="rounded=0;whiteSpace=wrap;html=1;fillColor=none;" parent="u0r1JOzPj--q7MegoqgF-197" vertex="1">
          <mxGeometry x="240" y="140" width="20" height="20" as="geometry" />
        </mxCell>
        <mxCell id="u0r1JOzPj--q7MegoqgF-89" value="" style="rounded=0;whiteSpace=wrap;html=1;fillColor=none;" parent="u0r1JOzPj--q7MegoqgF-197" vertex="1">
          <mxGeometry x="260" y="140" width="20" height="20" as="geometry" />
        </mxCell>
        <mxCell id="u0r1JOzPj--q7MegoqgF-90" value="&lt;font style=&quot;font-size: 8px;&quot;&gt;0&lt;/font&gt;" style="text;html=1;align=center;verticalAlign=middle;whiteSpace=wrap;rounded=0;" parent="u0r1JOzPj--q7MegoqgF-197" vertex="1">
          <mxGeometry x="260" y="160" width="20" height="20" as="geometry" />
        </mxCell>
        <mxCell id="u0r1JOzPj--q7MegoqgF-91" value="&lt;font style=&quot;font-size: 8px;&quot;&gt;3&lt;/font&gt;" style="text;html=1;align=center;verticalAlign=middle;whiteSpace=wrap;rounded=0;" parent="u0r1JOzPj--q7MegoqgF-197" vertex="1">
          <mxGeometry x="200" y="160" width="20" height="20" as="geometry" />
        </mxCell>
        <mxCell id="u0r1JOzPj--q7MegoqgF-92" value="" style="rounded=0;whiteSpace=wrap;html=1;fillColor=none;" parent="u0r1JOzPj--q7MegoqgF-197" vertex="1">
          <mxGeometry x="100" y="140" width="20" height="20" as="geometry" />
        </mxCell>
        <mxCell id="u0r1JOzPj--q7MegoqgF-93" value="" style="rounded=0;whiteSpace=wrap;html=1;fillColor=none;" parent="u0r1JOzPj--q7MegoqgF-197" vertex="1">
          <mxGeometry x="120" y="140" width="20" height="20" as="geometry" />
        </mxCell>
        <mxCell id="u0r1JOzPj--q7MegoqgF-94" value="" style="rounded=0;whiteSpace=wrap;html=1;fillColor=none;" parent="u0r1JOzPj--q7MegoqgF-197" vertex="1">
          <mxGeometry x="140" y="140" width="20" height="20" as="geometry" />
        </mxCell>
        <mxCell id="u0r1JOzPj--q7MegoqgF-95" value="" style="rounded=0;whiteSpace=wrap;html=1;fillColor=none;" parent="u0r1JOzPj--q7MegoqgF-197" vertex="1">
          <mxGeometry x="160" y="140" width="20" height="20" as="geometry" />
        </mxCell>
        <mxCell id="u0r1JOzPj--q7MegoqgF-96" value="&lt;font style=&quot;font-size: 8px;&quot;&gt;4&lt;/font&gt;" style="text;html=1;align=center;verticalAlign=middle;whiteSpace=wrap;rounded=0;" parent="u0r1JOzPj--q7MegoqgF-197" vertex="1">
          <mxGeometry x="160" y="160" width="20" height="20" as="geometry" />
        </mxCell>
        <mxCell id="u0r1JOzPj--q7MegoqgF-97" value="&lt;font style=&quot;font-size: 8px;&quot;&gt;7&lt;/font&gt;" style="text;html=1;align=center;verticalAlign=middle;whiteSpace=wrap;rounded=0;" parent="u0r1JOzPj--q7MegoqgF-197" vertex="1">
          <mxGeometry x="100" y="160" width="20" height="20" as="geometry" />
        </mxCell>
        <mxCell id="u0r1JOzPj--q7MegoqgF-98" value="" style="rounded=0;whiteSpace=wrap;html=1;fillColor=none;" parent="u0r1JOzPj--q7MegoqgF-197" vertex="1">
          <mxGeometry x="200" y="200" width="20" height="20" as="geometry" />
        </mxCell>
        <mxCell id="u0r1JOzPj--q7MegoqgF-99" value="" style="rounded=0;whiteSpace=wrap;html=1;fillColor=none;" parent="u0r1JOzPj--q7MegoqgF-197" vertex="1">
          <mxGeometry x="220" y="200" width="20" height="20" as="geometry" />
        </mxCell>
        <mxCell id="u0r1JOzPj--q7MegoqgF-100" value="" style="rounded=0;whiteSpace=wrap;html=1;fillColor=none;" parent="u0r1JOzPj--q7MegoqgF-197" vertex="1">
          <mxGeometry x="240" y="200" width="20" height="20" as="geometry" />
        </mxCell>
        <mxCell id="u0r1JOzPj--q7MegoqgF-101" value="" style="rounded=0;whiteSpace=wrap;html=1;fillColor=none;" parent="u0r1JOzPj--q7MegoqgF-197" vertex="1">
          <mxGeometry x="260" y="200" width="20" height="20" as="geometry" />
        </mxCell>
        <mxCell id="u0r1JOzPj--q7MegoqgF-102" value="&lt;font style=&quot;font-size: 8px;&quot;&gt;0&lt;/font&gt;" style="text;html=1;align=center;verticalAlign=middle;whiteSpace=wrap;rounded=0;" parent="u0r1JOzPj--q7MegoqgF-197" vertex="1">
          <mxGeometry x="260" y="220" width="20" height="20" as="geometry" />
        </mxCell>
        <mxCell id="u0r1JOzPj--q7MegoqgF-103" value="&lt;font style=&quot;font-size: 8px;&quot;&gt;3&lt;/font&gt;" style="text;html=1;align=center;verticalAlign=middle;whiteSpace=wrap;rounded=0;" parent="u0r1JOzPj--q7MegoqgF-197" vertex="1">
          <mxGeometry x="200" y="220" width="20" height="20" as="geometry" />
        </mxCell>
        <mxCell id="u0r1JOzPj--q7MegoqgF-104" value="" style="rounded=0;whiteSpace=wrap;html=1;fillColor=none;" parent="u0r1JOzPj--q7MegoqgF-197" vertex="1">
          <mxGeometry x="100" y="200" width="20" height="20" as="geometry" />
        </mxCell>
        <mxCell id="u0r1JOzPj--q7MegoqgF-105" value="" style="rounded=0;whiteSpace=wrap;html=1;fillColor=none;" parent="u0r1JOzPj--q7MegoqgF-197" vertex="1">
          <mxGeometry x="120" y="200" width="20" height="20" as="geometry" />
        </mxCell>
        <mxCell id="u0r1JOzPj--q7MegoqgF-106" value="" style="rounded=0;whiteSpace=wrap;html=1;fillColor=none;" parent="u0r1JOzPj--q7MegoqgF-197" vertex="1">
          <mxGeometry x="140" y="200" width="20" height="20" as="geometry" />
        </mxCell>
        <mxCell id="u0r1JOzPj--q7MegoqgF-107" value="" style="rounded=0;whiteSpace=wrap;html=1;fillColor=none;" parent="u0r1JOzPj--q7MegoqgF-197" vertex="1">
          <mxGeometry x="160" y="200" width="20" height="20" as="geometry" />
        </mxCell>
        <mxCell id="u0r1JOzPj--q7MegoqgF-108" value="&lt;font style=&quot;font-size: 8px;&quot;&gt;4&lt;/font&gt;" style="text;html=1;align=center;verticalAlign=middle;whiteSpace=wrap;rounded=0;" parent="u0r1JOzPj--q7MegoqgF-197" vertex="1">
          <mxGeometry x="160" y="220" width="20" height="20" as="geometry" />
        </mxCell>
        <mxCell id="u0r1JOzPj--q7MegoqgF-109" value="&lt;font style=&quot;font-size: 8px;&quot;&gt;7&lt;/font&gt;" style="text;html=1;align=center;verticalAlign=middle;whiteSpace=wrap;rounded=0;" parent="u0r1JOzPj--q7MegoqgF-197" vertex="1">
          <mxGeometry x="100" y="220" width="20" height="20" as="geometry" />
        </mxCell>
        <mxCell id="u0r1JOzPj--q7MegoqgF-110" value="&lt;font style=&quot;font-size: 10px;&quot;&gt;&lt;b&gt;current: DRIVER_OK&lt;/b&gt;&lt;/font&gt;&lt;div&gt;&lt;font style=&quot;font-size: 10px;&quot;&gt;&lt;b&gt;previous: FEATURES_OK&lt;/b&gt;&lt;/font&gt;&lt;/div&gt;" style="text;html=1;align=center;verticalAlign=middle;whiteSpace=wrap;rounded=0;" parent="u0r1JOzPj--q7MegoqgF-197" vertex="1">
          <mxGeometry x="40" y="250" width="240" height="30" as="geometry" />
        </mxCell>
        <mxCell id="u0r1JOzPj--q7MegoqgF-111" value="" style="ellipse;whiteSpace=wrap;html=1;aspect=fixed;strokeColor=none;fillColor=#000000;" parent="u0r1JOzPj--q7MegoqgF-197" vertex="1">
          <mxGeometry x="265" y="145" width="10" height="10" as="geometry" />
        </mxCell>
        <mxCell id="u0r1JOzPj--q7MegoqgF-112" value="" style="ellipse;whiteSpace=wrap;html=1;aspect=fixed;strokeColor=none;fillColor=#000000;" parent="u0r1JOzPj--q7MegoqgF-197" vertex="1">
          <mxGeometry x="245" y="145" width="10" height="10" as="geometry" />
        </mxCell>
        <mxCell id="u0r1JOzPj--q7MegoqgF-114" value="" style="ellipse;whiteSpace=wrap;html=1;aspect=fixed;strokeColor=none;fillColor=#000000;" parent="u0r1JOzPj--q7MegoqgF-197" vertex="1">
          <mxGeometry x="225" y="205" width="10" height="10" as="geometry" />
        </mxCell>
        <mxCell id="u0r1JOzPj--q7MegoqgF-115" value="&lt;font style=&quot;font-size: 10px;&quot;&gt;Status&lt;/font&gt;" style="text;html=1;align=left;verticalAlign=middle;whiteSpace=wrap;rounded=0;" parent="u0r1JOzPj--q7MegoqgF-197" vertex="1">
          <mxGeometry x="40" y="140" width="60" height="20" as="geometry" />
        </mxCell>
        <mxCell id="u0r1JOzPj--q7MegoqgF-116" value="&lt;font style=&quot;font-size: 10px;&quot;&gt;CurStatus&lt;/font&gt;" style="text;html=1;align=left;verticalAlign=middle;whiteSpace=wrap;rounded=0;" parent="u0r1JOzPj--q7MegoqgF-197" vertex="1">
          <mxGeometry x="40" y="200" width="60" height="20" as="geometry" />
        </mxCell>
        <mxCell id="u0r1JOzPj--q7MegoqgF-117" value="" style="ellipse;whiteSpace=wrap;html=1;aspect=fixed;strokeColor=none;fillColor=#000000;" parent="u0r1JOzPj--q7MegoqgF-197" vertex="1">
          <mxGeometry x="225" y="145" width="10" height="10" as="geometry" />
        </mxCell>
        <mxCell id="u0r1JOzPj--q7MegoqgF-118" value="" style="ellipse;whiteSpace=wrap;html=1;aspect=fixed;strokeColor=none;fillColor=#000000;" parent="u0r1JOzPj--q7MegoqgF-197" vertex="1">
          <mxGeometry x="205" y="145" width="10" height="10" as="geometry" />
        </mxCell>
        <mxCell id="u0r1JOzPj--q7MegoqgF-176" value="&lt;font style=&quot;font-size: 8px;&quot;&gt;ACKNOWLEDGE&lt;/font&gt;" style="text;html=1;align=left;verticalAlign=middle;whiteSpace=wrap;rounded=0;rotation=-90;" parent="u0r1JOzPj--q7MegoqgF-197" vertex="1">
          <mxGeometry x="230" y="70" width="80" height="20" as="geometry" />
        </mxCell>
        <mxCell id="u0r1JOzPj--q7MegoqgF-177" value="&lt;font style=&quot;font-size: 8px;&quot;&gt;DRIVER&lt;/font&gt;" style="text;html=1;align=left;verticalAlign=middle;whiteSpace=wrap;rounded=0;rotation=-90;" parent="u0r1JOzPj--q7MegoqgF-197" vertex="1">
          <mxGeometry x="210" y="70" width="80" height="20" as="geometry" />
        </mxCell>
        <mxCell id="u0r1JOzPj--q7MegoqgF-178" value="&lt;font style=&quot;font-size: 8px;&quot;&gt;DRIVER_OK&lt;/font&gt;" style="text;html=1;align=left;verticalAlign=middle;whiteSpace=wrap;rounded=0;rotation=-90;" parent="u0r1JOzPj--q7MegoqgF-197" vertex="1">
          <mxGeometry x="190" y="70" width="80" height="20" as="geometry" />
        </mxCell>
        <mxCell id="u0r1JOzPj--q7MegoqgF-179" value="&lt;font style=&quot;font-size: 8px;&quot;&gt;FEATURES_OK&lt;/font&gt;" style="text;html=1;align=left;verticalAlign=middle;whiteSpace=wrap;rounded=0;rotation=-90;" parent="u0r1JOzPj--q7MegoqgF-197" vertex="1">
          <mxGeometry x="170" y="70" width="80" height="20" as="geometry" />
        </mxCell>
        <mxCell id="u0r1JOzPj--q7MegoqgF-180" value="&lt;font style=&quot;font-size: 8px;&quot;&gt;FAILED&lt;/font&gt;" style="text;html=1;align=left;verticalAlign=middle;whiteSpace=wrap;rounded=0;rotation=-90;" parent="u0r1JOzPj--q7MegoqgF-197" vertex="1">
          <mxGeometry x="70" y="70" width="80" height="20" as="geometry" />
        </mxCell>
        <mxCell id="u0r1JOzPj--q7MegoqgF-181" value="&lt;font style=&quot;font-size: 8px;&quot;&gt;DEVICE_NEEDS_RESET&lt;/font&gt;" style="text;html=1;align=left;verticalAlign=middle;whiteSpace=wrap;rounded=0;rotation=-90;" parent="u0r1JOzPj--q7MegoqgF-197" vertex="1">
          <mxGeometry x="80" y="60" width="100" height="20" as="geometry" />
        </mxCell>
        <mxCell id="u0r1JOzPj--q7MegoqgF-200" value="" style="group;fillColor=#FFFFFF;rounded=1;shadow=1;" parent="1" vertex="1" connectable="0">
          <mxGeometry x="60" y="420" width="320" height="300" as="geometry" />
        </mxCell>
        <mxCell id="u0r1JOzPj--q7MegoqgF-167" value="" style="rounded=1;whiteSpace=wrap;html=1;strokeWidth=1;strokeColor=none;fillColor=none;shadow=1;movable=1;resizable=1;rotatable=1;deletable=1;editable=1;locked=0;connectable=1;" parent="u0r1JOzPj--q7MegoqgF-200" vertex="1">
          <mxGeometry width="320" height="300" as="geometry" />
        </mxCell>
        <mxCell id="u0r1JOzPj--q7MegoqgF-1" value="" style="rounded=0;whiteSpace=wrap;html=1;fillColor=none;container=0;" parent="u0r1JOzPj--q7MegoqgF-200" vertex="1">
          <mxGeometry x="200" y="140" width="20" height="20" as="geometry" />
        </mxCell>
        <mxCell id="u0r1JOzPj--q7MegoqgF-2" value="" style="rounded=0;whiteSpace=wrap;html=1;fillColor=none;container=0;" parent="u0r1JOzPj--q7MegoqgF-200" vertex="1">
          <mxGeometry x="220" y="140" width="20" height="20" as="geometry" />
        </mxCell>
        <mxCell id="u0r1JOzPj--q7MegoqgF-3" value="" style="rounded=0;whiteSpace=wrap;html=1;fillColor=none;container=0;" parent="u0r1JOzPj--q7MegoqgF-200" vertex="1">
          <mxGeometry x="240" y="140" width="20" height="20" as="geometry" />
        </mxCell>
        <mxCell id="u0r1JOzPj--q7MegoqgF-4" value="" style="rounded=0;whiteSpace=wrap;html=1;fillColor=none;container=0;" parent="u0r1JOzPj--q7MegoqgF-200" vertex="1">
          <mxGeometry x="260" y="140" width="20" height="20" as="geometry" />
        </mxCell>
        <mxCell id="u0r1JOzPj--q7MegoqgF-5" value="&lt;font style=&quot;font-size: 8px;&quot;&gt;0&lt;/font&gt;" style="text;html=1;align=center;verticalAlign=middle;whiteSpace=wrap;rounded=0;container=0;" parent="u0r1JOzPj--q7MegoqgF-200" vertex="1">
          <mxGeometry x="260" y="160" width="20" height="20" as="geometry" />
        </mxCell>
        <mxCell id="u0r1JOzPj--q7MegoqgF-6" value="&lt;font style=&quot;font-size: 8px;&quot;&gt;3&lt;/font&gt;" style="text;html=1;align=center;verticalAlign=middle;whiteSpace=wrap;rounded=0;container=0;" parent="u0r1JOzPj--q7MegoqgF-200" vertex="1">
          <mxGeometry x="200" y="160" width="20" height="20" as="geometry" />
        </mxCell>
        <mxCell id="u0r1JOzPj--q7MegoqgF-13" value="" style="rounded=0;whiteSpace=wrap;html=1;fillColor=none;container=0;" parent="u0r1JOzPj--q7MegoqgF-200" vertex="1">
          <mxGeometry x="100" y="140" width="20" height="20" as="geometry" />
        </mxCell>
        <mxCell id="u0r1JOzPj--q7MegoqgF-14" value="" style="rounded=0;whiteSpace=wrap;html=1;fillColor=none;container=0;" parent="u0r1JOzPj--q7MegoqgF-200" vertex="1">
          <mxGeometry x="120" y="140" width="20" height="20" as="geometry" />
        </mxCell>
        <mxCell id="u0r1JOzPj--q7MegoqgF-15" value="" style="rounded=0;whiteSpace=wrap;html=1;fillColor=none;container=0;" parent="u0r1JOzPj--q7MegoqgF-200" vertex="1">
          <mxGeometry x="140" y="140" width="20" height="20" as="geometry" />
        </mxCell>
        <mxCell id="u0r1JOzPj--q7MegoqgF-16" value="" style="rounded=0;whiteSpace=wrap;html=1;fillColor=none;container=0;" parent="u0r1JOzPj--q7MegoqgF-200" vertex="1">
          <mxGeometry x="160" y="140" width="20" height="20" as="geometry" />
        </mxCell>
        <mxCell id="u0r1JOzPj--q7MegoqgF-17" value="&lt;font style=&quot;font-size: 8px;&quot;&gt;4&lt;/font&gt;" style="text;html=1;align=center;verticalAlign=middle;whiteSpace=wrap;rounded=0;container=0;" parent="u0r1JOzPj--q7MegoqgF-200" vertex="1">
          <mxGeometry x="160" y="160" width="20" height="20" as="geometry" />
        </mxCell>
        <mxCell id="u0r1JOzPj--q7MegoqgF-18" value="&lt;font style=&quot;font-size: 8px;&quot;&gt;7&lt;/font&gt;" style="text;html=1;align=center;verticalAlign=middle;whiteSpace=wrap;rounded=0;container=0;" parent="u0r1JOzPj--q7MegoqgF-200" vertex="1">
          <mxGeometry x="100" y="160" width="20" height="20" as="geometry" />
        </mxCell>
        <mxCell id="u0r1JOzPj--q7MegoqgF-19" value="" style="rounded=0;whiteSpace=wrap;html=1;fillColor=none;container=0;" parent="u0r1JOzPj--q7MegoqgF-200" vertex="1">
          <mxGeometry x="200" y="200" width="20" height="20" as="geometry" />
        </mxCell>
        <mxCell id="u0r1JOzPj--q7MegoqgF-20" value="" style="rounded=0;whiteSpace=wrap;html=1;fillColor=none;container=0;" parent="u0r1JOzPj--q7MegoqgF-200" vertex="1">
          <mxGeometry x="220" y="200" width="20" height="20" as="geometry" />
        </mxCell>
        <mxCell id="u0r1JOzPj--q7MegoqgF-21" value="" style="rounded=0;whiteSpace=wrap;html=1;fillColor=none;container=0;" parent="u0r1JOzPj--q7MegoqgF-200" vertex="1">
          <mxGeometry x="240" y="200" width="20" height="20" as="geometry" />
        </mxCell>
        <mxCell id="u0r1JOzPj--q7MegoqgF-22" value="" style="rounded=0;whiteSpace=wrap;html=1;fillColor=none;container=0;" parent="u0r1JOzPj--q7MegoqgF-200" vertex="1">
          <mxGeometry x="260" y="200" width="20" height="20" as="geometry" />
        </mxCell>
        <mxCell id="u0r1JOzPj--q7MegoqgF-23" value="&lt;font style=&quot;font-size: 8px;&quot;&gt;0&lt;/font&gt;" style="text;html=1;align=center;verticalAlign=middle;whiteSpace=wrap;rounded=0;container=0;" parent="u0r1JOzPj--q7MegoqgF-200" vertex="1">
          <mxGeometry x="260" y="220" width="20" height="20" as="geometry" />
        </mxCell>
        <mxCell id="u0r1JOzPj--q7MegoqgF-24" value="&lt;font style=&quot;font-size: 8px;&quot;&gt;3&lt;/font&gt;" style="text;html=1;align=center;verticalAlign=middle;whiteSpace=wrap;rounded=0;container=0;" parent="u0r1JOzPj--q7MegoqgF-200" vertex="1">
          <mxGeometry x="200" y="220" width="20" height="20" as="geometry" />
        </mxCell>
        <mxCell id="u0r1JOzPj--q7MegoqgF-25" value="" style="rounded=0;whiteSpace=wrap;html=1;fillColor=none;container=0;" parent="u0r1JOzPj--q7MegoqgF-200" vertex="1">
          <mxGeometry x="100" y="200" width="20" height="20" as="geometry" />
        </mxCell>
        <mxCell id="u0r1JOzPj--q7MegoqgF-26" value="" style="rounded=0;whiteSpace=wrap;html=1;fillColor=none;container=0;" parent="u0r1JOzPj--q7MegoqgF-200" vertex="1">
          <mxGeometry x="120" y="200" width="20" height="20" as="geometry" />
        </mxCell>
        <mxCell id="u0r1JOzPj--q7MegoqgF-27" value="" style="rounded=0;whiteSpace=wrap;html=1;fillColor=none;container=0;" parent="u0r1JOzPj--q7MegoqgF-200" vertex="1">
          <mxGeometry x="140" y="200" width="20" height="20" as="geometry" />
        </mxCell>
        <mxCell id="u0r1JOzPj--q7MegoqgF-28" value="" style="rounded=0;whiteSpace=wrap;html=1;fillColor=none;container=0;" parent="u0r1JOzPj--q7MegoqgF-200" vertex="1">
          <mxGeometry x="160" y="200" width="20" height="20" as="geometry" />
        </mxCell>
        <mxCell id="u0r1JOzPj--q7MegoqgF-29" value="&lt;font style=&quot;font-size: 8px;&quot;&gt;4&lt;/font&gt;" style="text;html=1;align=center;verticalAlign=middle;whiteSpace=wrap;rounded=0;container=0;" parent="u0r1JOzPj--q7MegoqgF-200" vertex="1">
          <mxGeometry x="160" y="220" width="20" height="20" as="geometry" />
        </mxCell>
        <mxCell id="u0r1JOzPj--q7MegoqgF-30" value="&lt;font style=&quot;font-size: 8px;&quot;&gt;7&lt;/font&gt;" style="text;html=1;align=center;verticalAlign=middle;whiteSpace=wrap;rounded=0;container=0;" parent="u0r1JOzPj--q7MegoqgF-200" vertex="1">
          <mxGeometry x="100" y="220" width="20" height="20" as="geometry" />
        </mxCell>
        <mxCell id="u0r1JOzPj--q7MegoqgF-31" value="&lt;font style=&quot;font-size: 10px;&quot;&gt;&lt;b&gt;current: FAILED&lt;/b&gt;&lt;/font&gt;&lt;div&gt;&lt;font style=&quot;font-size: 10px;&quot;&gt;&lt;b&gt;previous: DRIVER&lt;/b&gt;&lt;/font&gt;&lt;/div&gt;" style="text;html=1;align=center;verticalAlign=middle;whiteSpace=wrap;rounded=0;container=0;" parent="u0r1JOzPj--q7MegoqgF-200" vertex="1">
          <mxGeometry x="40" y="250" width="240" height="30" as="geometry" />
        </mxCell>
        <mxCell id="u0r1JOzPj--q7MegoqgF-34" value="" style="ellipse;whiteSpace=wrap;html=1;aspect=fixed;strokeColor=none;fillColor=#000000;container=0;" parent="u0r1JOzPj--q7MegoqgF-200" vertex="1">
          <mxGeometry x="265" y="145" width="10" height="10" as="geometry" />
        </mxCell>
        <mxCell id="u0r1JOzPj--q7MegoqgF-41" value="&lt;font style=&quot;font-size: 8px;&quot;&gt;ACKNOWLEDGE&lt;/font&gt;" style="text;html=1;align=left;verticalAlign=middle;whiteSpace=wrap;rounded=0;rotation=-90;container=0;" parent="u0r1JOzPj--q7MegoqgF-200" vertex="1">
          <mxGeometry x="230" y="70" width="80" height="20" as="geometry" />
        </mxCell>
        <mxCell id="u0r1JOzPj--q7MegoqgF-42" value="&lt;font style=&quot;font-size: 8px;&quot;&gt;DRIVER&lt;/font&gt;" style="text;html=1;align=left;verticalAlign=middle;whiteSpace=wrap;rounded=0;rotation=-90;container=0;" parent="u0r1JOzPj--q7MegoqgF-200" vertex="1">
          <mxGeometry x="210" y="70" width="80" height="20" as="geometry" />
        </mxCell>
        <mxCell id="u0r1JOzPj--q7MegoqgF-43" value="&lt;font style=&quot;font-size: 8px;&quot;&gt;DRIVER_OK&lt;/font&gt;" style="text;html=1;align=left;verticalAlign=middle;whiteSpace=wrap;rounded=0;rotation=-90;container=0;" parent="u0r1JOzPj--q7MegoqgF-200" vertex="1">
          <mxGeometry x="190" y="70" width="80" height="20" as="geometry" />
        </mxCell>
        <mxCell id="u0r1JOzPj--q7MegoqgF-44" value="&lt;font style=&quot;font-size: 8px;&quot;&gt;FEATURES_OK&lt;/font&gt;" style="text;html=1;align=left;verticalAlign=middle;whiteSpace=wrap;rounded=0;rotation=-90;container=0;" parent="u0r1JOzPj--q7MegoqgF-200" vertex="1">
          <mxGeometry x="170" y="70" width="80" height="20" as="geometry" />
        </mxCell>
        <mxCell id="u0r1JOzPj--q7MegoqgF-45" value="&lt;font style=&quot;font-size: 8px;&quot;&gt;FAILED&lt;/font&gt;" style="text;html=1;align=left;verticalAlign=middle;whiteSpace=wrap;rounded=0;rotation=-90;container=0;" parent="u0r1JOzPj--q7MegoqgF-200" vertex="1">
          <mxGeometry x="70" y="70" width="80" height="20" as="geometry" />
        </mxCell>
        <mxCell id="u0r1JOzPj--q7MegoqgF-46" value="&lt;font style=&quot;font-size: 8px;&quot;&gt;DEVICE_NEEDS_RESET&lt;/font&gt;" style="text;html=1;align=left;verticalAlign=middle;whiteSpace=wrap;rounded=0;rotation=-90;container=0;" parent="u0r1JOzPj--q7MegoqgF-200" vertex="1">
          <mxGeometry x="80" y="60" width="100" height="20" as="geometry" />
        </mxCell>
        <mxCell id="u0r1JOzPj--q7MegoqgF-47" value="" style="ellipse;whiteSpace=wrap;html=1;aspect=fixed;strokeColor=none;fillColor=#000000;container=0;" parent="u0r1JOzPj--q7MegoqgF-200" vertex="1">
          <mxGeometry x="245" y="145" width="10" height="10" as="geometry" />
        </mxCell>
        <mxCell id="u0r1JOzPj--q7MegoqgF-48" value="" style="ellipse;whiteSpace=wrap;html=1;aspect=fixed;strokeColor=none;fillColor=#000000;container=0;" parent="u0r1JOzPj--q7MegoqgF-200" vertex="1">
          <mxGeometry x="105" y="145" width="10" height="10" as="geometry" />
        </mxCell>
        <mxCell id="u0r1JOzPj--q7MegoqgF-49" value="" style="ellipse;whiteSpace=wrap;html=1;aspect=fixed;strokeColor=none;fillColor=#000000;container=0;" parent="u0r1JOzPj--q7MegoqgF-200" vertex="1">
          <mxGeometry x="105" y="205" width="10" height="10" as="geometry" />
        </mxCell>
        <mxCell id="u0r1JOzPj--q7MegoqgF-50" value="&lt;font style=&quot;font-size: 10px;&quot;&gt;Status&lt;/font&gt;" style="text;html=1;align=left;verticalAlign=middle;whiteSpace=wrap;rounded=0;container=0;" parent="u0r1JOzPj--q7MegoqgF-200" vertex="1">
          <mxGeometry x="40" y="140" width="60" height="20" as="geometry" />
        </mxCell>
        <mxCell id="u0r1JOzPj--q7MegoqgF-51" value="&lt;font style=&quot;font-size: 10px;&quot;&gt;CurStatus&lt;/font&gt;" style="text;html=1;align=left;verticalAlign=middle;whiteSpace=wrap;rounded=0;container=0;" parent="u0r1JOzPj--q7MegoqgF-200" vertex="1">
          <mxGeometry x="40" y="200" width="60" height="20" as="geometry" />
        </mxCell>
        <mxCell id="u0r1JOzPj--q7MegoqgF-207" value="" style="group;fillColor=#FFFFFF;rounded=1;shadow=1;" parent="1" vertex="1" connectable="0">
          <mxGeometry x="60" y="760" width="460" height="300" as="geometry" />
        </mxCell>
        <mxCell id="u0r1JOzPj--q7MegoqgF-196" value="" style="rounded=1;whiteSpace=wrap;html=1;strokeWidth=1;strokeColor=none;fillColor=none;shadow=1;movable=1;resizable=1;rotatable=1;deletable=1;editable=1;locked=0;connectable=1;container=0;" parent="u0r1JOzPj--q7MegoqgF-207" vertex="1">
          <mxGeometry width="460" height="300" as="geometry" />
        </mxCell>
        <mxCell id="u0r1JOzPj--q7MegoqgF-120" value="" style="rounded=0;whiteSpace=wrap;html=1;fillColor=none;container=0;" parent="u0r1JOzPj--q7MegoqgF-207" vertex="1">
          <mxGeometry x="340" y="140" width="20" height="20" as="geometry" />
        </mxCell>
        <mxCell id="u0r1JOzPj--q7MegoqgF-121" value="" style="rounded=0;whiteSpace=wrap;html=1;fillColor=none;container=0;" parent="u0r1JOzPj--q7MegoqgF-207" vertex="1">
          <mxGeometry x="360" y="140" width="20" height="20" as="geometry" />
        </mxCell>
        <mxCell id="u0r1JOzPj--q7MegoqgF-122" value="" style="rounded=0;whiteSpace=wrap;html=1;fillColor=none;container=0;" parent="u0r1JOzPj--q7MegoqgF-207" vertex="1">
          <mxGeometry x="380" y="140" width="20" height="20" as="geometry" />
        </mxCell>
        <mxCell id="u0r1JOzPj--q7MegoqgF-123" value="" style="rounded=0;whiteSpace=wrap;html=1;fillColor=none;container=0;" parent="u0r1JOzPj--q7MegoqgF-207" vertex="1">
          <mxGeometry x="400" y="140" width="20" height="20" as="geometry" />
        </mxCell>
        <mxCell id="u0r1JOzPj--q7MegoqgF-124" value="&lt;font style=&quot;font-size: 8px;&quot;&gt;0&lt;/font&gt;" style="text;html=1;align=center;verticalAlign=middle;whiteSpace=wrap;rounded=0;container=0;" parent="u0r1JOzPj--q7MegoqgF-207" vertex="1">
          <mxGeometry x="400" y="160" width="20" height="20" as="geometry" />
        </mxCell>
        <mxCell id="u0r1JOzPj--q7MegoqgF-125" value="&lt;font style=&quot;font-size: 8px;&quot;&gt;3&lt;/font&gt;" style="text;html=1;align=center;verticalAlign=middle;whiteSpace=wrap;rounded=0;container=0;" parent="u0r1JOzPj--q7MegoqgF-207" vertex="1">
          <mxGeometry x="340" y="160" width="20" height="20" as="geometry" />
        </mxCell>
        <mxCell id="u0r1JOzPj--q7MegoqgF-126" value="" style="rounded=0;whiteSpace=wrap;html=1;fillColor=none;container=0;" parent="u0r1JOzPj--q7MegoqgF-207" vertex="1">
          <mxGeometry x="240" y="140" width="20" height="20" as="geometry" />
        </mxCell>
        <mxCell id="u0r1JOzPj--q7MegoqgF-127" value="" style="rounded=0;whiteSpace=wrap;html=1;fillColor=none;container=0;" parent="u0r1JOzPj--q7MegoqgF-207" vertex="1">
          <mxGeometry x="260" y="140" width="20" height="20" as="geometry" />
        </mxCell>
        <mxCell id="u0r1JOzPj--q7MegoqgF-128" value="" style="rounded=0;whiteSpace=wrap;html=1;fillColor=none;container=0;" parent="u0r1JOzPj--q7MegoqgF-207" vertex="1">
          <mxGeometry x="280" y="140" width="20" height="20" as="geometry" />
        </mxCell>
        <mxCell id="u0r1JOzPj--q7MegoqgF-129" value="" style="rounded=0;whiteSpace=wrap;html=1;fillColor=none;container=0;" parent="u0r1JOzPj--q7MegoqgF-207" vertex="1">
          <mxGeometry x="300" y="140" width="20" height="20" as="geometry" />
        </mxCell>
        <mxCell id="u0r1JOzPj--q7MegoqgF-130" value="&lt;font style=&quot;font-size: 8px;&quot;&gt;4&lt;/font&gt;" style="text;html=1;align=center;verticalAlign=middle;whiteSpace=wrap;rounded=0;container=0;" parent="u0r1JOzPj--q7MegoqgF-207" vertex="1">
          <mxGeometry x="300" y="160" width="20" height="20" as="geometry" />
        </mxCell>
        <mxCell id="u0r1JOzPj--q7MegoqgF-131" value="&lt;font style=&quot;font-size: 8px;&quot;&gt;7&lt;/font&gt;" style="text;html=1;align=center;verticalAlign=middle;whiteSpace=wrap;rounded=0;container=0;" parent="u0r1JOzPj--q7MegoqgF-207" vertex="1">
          <mxGeometry x="240" y="160" width="20" height="20" as="geometry" />
        </mxCell>
        <mxCell id="u0r1JOzPj--q7MegoqgF-132" value="" style="rounded=0;whiteSpace=wrap;html=1;fillColor=none;container=0;" parent="u0r1JOzPj--q7MegoqgF-207" vertex="1">
          <mxGeometry x="340" y="200" width="20" height="20" as="geometry" />
        </mxCell>
        <mxCell id="u0r1JOzPj--q7MegoqgF-133" value="" style="rounded=0;whiteSpace=wrap;html=1;fillColor=none;container=0;" parent="u0r1JOzPj--q7MegoqgF-207" vertex="1">
          <mxGeometry x="360" y="200" width="20" height="20" as="geometry" />
        </mxCell>
        <mxCell id="u0r1JOzPj--q7MegoqgF-134" value="" style="rounded=0;whiteSpace=wrap;html=1;fillColor=none;container=0;" parent="u0r1JOzPj--q7MegoqgF-207" vertex="1">
          <mxGeometry x="380" y="200" width="20" height="20" as="geometry" />
        </mxCell>
        <mxCell id="u0r1JOzPj--q7MegoqgF-135" value="" style="rounded=0;whiteSpace=wrap;html=1;fillColor=none;container=0;" parent="u0r1JOzPj--q7MegoqgF-207" vertex="1">
          <mxGeometry x="400" y="200" width="20" height="20" as="geometry" />
        </mxCell>
        <mxCell id="u0r1JOzPj--q7MegoqgF-136" value="&lt;font style=&quot;font-size: 8px;&quot;&gt;0&lt;/font&gt;" style="text;html=1;align=center;verticalAlign=middle;whiteSpace=wrap;rounded=0;container=0;" parent="u0r1JOzPj--q7MegoqgF-207" vertex="1">
          <mxGeometry x="400" y="220" width="20" height="20" as="geometry" />
        </mxCell>
        <mxCell id="u0r1JOzPj--q7MegoqgF-137" value="&lt;font style=&quot;font-size: 8px;&quot;&gt;3&lt;/font&gt;" style="text;html=1;align=center;verticalAlign=middle;whiteSpace=wrap;rounded=0;container=0;" parent="u0r1JOzPj--q7MegoqgF-207" vertex="1">
          <mxGeometry x="340" y="220" width="20" height="20" as="geometry" />
        </mxCell>
        <mxCell id="u0r1JOzPj--q7MegoqgF-138" value="" style="rounded=0;whiteSpace=wrap;html=1;fillColor=none;container=0;" parent="u0r1JOzPj--q7MegoqgF-207" vertex="1">
          <mxGeometry x="240" y="200" width="20" height="20" as="geometry" />
        </mxCell>
        <mxCell id="u0r1JOzPj--q7MegoqgF-139" value="" style="rounded=0;whiteSpace=wrap;html=1;fillColor=none;container=0;" parent="u0r1JOzPj--q7MegoqgF-207" vertex="1">
          <mxGeometry x="260" y="200" width="20" height="20" as="geometry" />
        </mxCell>
        <mxCell id="u0r1JOzPj--q7MegoqgF-140" value="" style="rounded=0;whiteSpace=wrap;html=1;fillColor=none;container=0;" parent="u0r1JOzPj--q7MegoqgF-207" vertex="1">
          <mxGeometry x="280" y="200" width="20" height="20" as="geometry" />
        </mxCell>
        <mxCell id="u0r1JOzPj--q7MegoqgF-141" value="" style="rounded=0;whiteSpace=wrap;html=1;fillColor=none;container=0;" parent="u0r1JOzPj--q7MegoqgF-207" vertex="1">
          <mxGeometry x="300" y="200" width="20" height="20" as="geometry" />
        </mxCell>
        <mxCell id="u0r1JOzPj--q7MegoqgF-142" value="&lt;font style=&quot;font-size: 8px;&quot;&gt;4&lt;/font&gt;" style="text;html=1;align=center;verticalAlign=middle;whiteSpace=wrap;rounded=0;container=0;" parent="u0r1JOzPj--q7MegoqgF-207" vertex="1">
          <mxGeometry x="300" y="220" width="20" height="20" as="geometry" />
        </mxCell>
        <mxCell id="u0r1JOzPj--q7MegoqgF-143" value="&lt;font style=&quot;font-size: 8px;&quot;&gt;7&lt;/font&gt;" style="text;html=1;align=center;verticalAlign=middle;whiteSpace=wrap;rounded=0;container=0;" parent="u0r1JOzPj--q7MegoqgF-207" vertex="1">
          <mxGeometry x="240" y="220" width="20" height="20" as="geometry" />
        </mxCell>
        <mxCell id="u0r1JOzPj--q7MegoqgF-144" value="&lt;font style=&quot;font-size: 10px;&quot;&gt;&lt;b&gt;current: RESET_UNDERWAY&lt;/b&gt;&lt;/font&gt;&lt;div&gt;&lt;font style=&quot;font-size: 10px;&quot;&gt;&lt;b&gt;previous: DRIVER_OK&lt;/b&gt;&lt;/font&gt;&lt;/div&gt;" style="text;html=1;align=center;verticalAlign=middle;whiteSpace=wrap;rounded=0;container=0;" parent="u0r1JOzPj--q7MegoqgF-207" vertex="1">
          <mxGeometry x="40" y="250" width="380" height="30" as="geometry" />
        </mxCell>
        <mxCell id="u0r1JOzPj--q7MegoqgF-145" value="" style="ellipse;whiteSpace=wrap;html=1;aspect=fixed;strokeColor=none;fillColor=#000000;container=0;" parent="u0r1JOzPj--q7MegoqgF-207" vertex="1">
          <mxGeometry x="405" y="145" width="10" height="10" as="geometry" />
        </mxCell>
        <mxCell id="u0r1JOzPj--q7MegoqgF-146" value="" style="ellipse;whiteSpace=wrap;html=1;aspect=fixed;strokeColor=none;fillColor=#000000;container=0;" parent="u0r1JOzPj--q7MegoqgF-207" vertex="1">
          <mxGeometry x="385" y="145" width="10" height="10" as="geometry" />
        </mxCell>
        <mxCell id="u0r1JOzPj--q7MegoqgF-148" value="&lt;font style=&quot;font-size: 10px;&quot;&gt;Status&lt;/font&gt;" style="text;html=1;align=left;verticalAlign=middle;whiteSpace=wrap;rounded=0;container=0;" parent="u0r1JOzPj--q7MegoqgF-207" vertex="1">
          <mxGeometry x="40" y="140" width="60" height="20" as="geometry" />
        </mxCell>
        <mxCell id="u0r1JOzPj--q7MegoqgF-149" value="&lt;font style=&quot;font-size: 10px;&quot;&gt;CurStatus&lt;/font&gt;" style="text;html=1;align=left;verticalAlign=middle;whiteSpace=wrap;rounded=0;container=0;" parent="u0r1JOzPj--q7MegoqgF-207" vertex="1">
          <mxGeometry x="40" y="200" width="60" height="20" as="geometry" />
        </mxCell>
        <mxCell id="u0r1JOzPj--q7MegoqgF-150" value="" style="ellipse;whiteSpace=wrap;html=1;aspect=fixed;strokeColor=none;fillColor=#000000;container=0;" parent="u0r1JOzPj--q7MegoqgF-207" vertex="1">
          <mxGeometry x="365" y="145" width="10" height="10" as="geometry" />
        </mxCell>
        <mxCell id="u0r1JOzPj--q7MegoqgF-151" value="" style="ellipse;whiteSpace=wrap;html=1;aspect=fixed;strokeColor=none;fillColor=#000000;container=0;" parent="u0r1JOzPj--q7MegoqgF-207" vertex="1">
          <mxGeometry x="345" y="145" width="10" height="10" as="geometry" />
        </mxCell>
        <mxCell id="u0r1JOzPj--q7MegoqgF-152" value="" style="rounded=0;whiteSpace=wrap;html=1;fillColor=none;container=0;" parent="u0r1JOzPj--q7MegoqgF-207" vertex="1">
          <mxGeometry x="100" y="140" width="20" height="20" as="geometry" />
        </mxCell>
        <mxCell id="u0r1JOzPj--q7MegoqgF-153" value="" style="rounded=0;whiteSpace=wrap;html=1;fillColor=none;container=0;" parent="u0r1JOzPj--q7MegoqgF-207" vertex="1">
          <mxGeometry x="120" y="140" width="20" height="20" as="geometry" />
        </mxCell>
        <mxCell id="u0r1JOzPj--q7MegoqgF-154" value="" style="rounded=0;whiteSpace=wrap;html=1;fillColor=none;container=0;" parent="u0r1JOzPj--q7MegoqgF-207" vertex="1">
          <mxGeometry x="140" y="140" width="20" height="20" as="geometry" />
        </mxCell>
        <mxCell id="u0r1JOzPj--q7MegoqgF-155" value="" style="rounded=0;whiteSpace=wrap;html=1;fillColor=none;container=0;" parent="u0r1JOzPj--q7MegoqgF-207" vertex="1">
          <mxGeometry x="160" y="140" width="20" height="20" as="geometry" />
        </mxCell>
        <mxCell id="u0r1JOzPj--q7MegoqgF-156" value="&lt;font style=&quot;font-size: 8px;&quot;&gt;16&lt;/font&gt;" style="text;html=1;align=center;verticalAlign=middle;whiteSpace=wrap;rounded=0;container=0;" parent="u0r1JOzPj--q7MegoqgF-207" vertex="1">
          <mxGeometry x="160" y="160" width="20" height="20" as="geometry" />
        </mxCell>
        <mxCell id="u0r1JOzPj--q7MegoqgF-157" value="&lt;font style=&quot;font-size: 8px;&quot;&gt;19&lt;/font&gt;" style="text;html=1;align=center;verticalAlign=middle;whiteSpace=wrap;rounded=0;container=0;" parent="u0r1JOzPj--q7MegoqgF-207" vertex="1">
          <mxGeometry x="100" y="160" width="20" height="20" as="geometry" />
        </mxCell>
        <mxCell id="u0r1JOzPj--q7MegoqgF-158" value="" style="rounded=0;whiteSpace=wrap;html=1;fillColor=none;container=0;" parent="u0r1JOzPj--q7MegoqgF-207" vertex="1">
          <mxGeometry x="100" y="200" width="20" height="20" as="geometry" />
        </mxCell>
        <mxCell id="u0r1JOzPj--q7MegoqgF-159" value="" style="rounded=0;whiteSpace=wrap;html=1;fillColor=none;container=0;" parent="u0r1JOzPj--q7MegoqgF-207" vertex="1">
          <mxGeometry x="120" y="200" width="20" height="20" as="geometry" />
        </mxCell>
        <mxCell id="u0r1JOzPj--q7MegoqgF-160" value="" style="rounded=0;whiteSpace=wrap;html=1;fillColor=none;container=0;" parent="u0r1JOzPj--q7MegoqgF-207" vertex="1">
          <mxGeometry x="140" y="200" width="20" height="20" as="geometry" />
        </mxCell>
        <mxCell id="u0r1JOzPj--q7MegoqgF-161" value="" style="rounded=0;whiteSpace=wrap;html=1;fillColor=none;container=0;" parent="u0r1JOzPj--q7MegoqgF-207" vertex="1">
          <mxGeometry x="160" y="200" width="20" height="20" as="geometry" />
        </mxCell>
        <mxCell id="u0r1JOzPj--q7MegoqgF-162" value="&lt;font style=&quot;font-size: 8px;&quot;&gt;16&lt;/font&gt;" style="text;html=1;align=center;verticalAlign=middle;whiteSpace=wrap;rounded=0;container=0;" parent="u0r1JOzPj--q7MegoqgF-207" vertex="1">
          <mxGeometry x="160" y="220" width="20" height="20" as="geometry" />
        </mxCell>
        <mxCell id="u0r1JOzPj--q7MegoqgF-163" value="&lt;font style=&quot;font-size: 8px;&quot;&gt;19&lt;/font&gt;" style="text;html=1;align=center;verticalAlign=middle;whiteSpace=wrap;rounded=0;container=0;" parent="u0r1JOzPj--q7MegoqgF-207" vertex="1">
          <mxGeometry x="100" y="220" width="20" height="20" as="geometry" />
        </mxCell>
        <mxCell id="u0r1JOzPj--q7MegoqgF-164" value="&lt;b&gt;&lt;font style=&quot;font-size: 14px;&quot;&gt;.&amp;nbsp; .&amp;nbsp; .&lt;/font&gt;&lt;/b&gt;" style="text;html=1;align=center;verticalAlign=middle;whiteSpace=wrap;rounded=0;container=0;" parent="u0r1JOzPj--q7MegoqgF-207" vertex="1">
          <mxGeometry x="180" y="130" width="60" height="30" as="geometry" />
        </mxCell>
        <mxCell id="u0r1JOzPj--q7MegoqgF-165" value="&lt;b&gt;&lt;font style=&quot;font-size: 14px;&quot;&gt;.&amp;nbsp; .&amp;nbsp; .&lt;/font&gt;&lt;/b&gt;" style="text;html=1;align=center;verticalAlign=middle;whiteSpace=wrap;rounded=0;container=0;" parent="u0r1JOzPj--q7MegoqgF-207" vertex="1">
          <mxGeometry x="180" y="190" width="60" height="30" as="geometry" />
        </mxCell>
        <mxCell id="u0r1JOzPj--q7MegoqgF-166" value="" style="ellipse;whiteSpace=wrap;html=1;aspect=fixed;strokeColor=none;fillColor=#000000;container=0;" parent="u0r1JOzPj--q7MegoqgF-207" vertex="1">
          <mxGeometry x="165" y="205" width="10" height="10" as="geometry" />
        </mxCell>
        <mxCell id="u0r1JOzPj--q7MegoqgF-187" value="&lt;font style=&quot;font-size: 8px;&quot;&gt;ACKNOWLEDGE&lt;/font&gt;" style="text;html=1;align=left;verticalAlign=middle;whiteSpace=wrap;rounded=0;rotation=-90;container=0;" parent="u0r1JOzPj--q7MegoqgF-207" vertex="1">
          <mxGeometry x="370" y="70" width="80" height="20" as="geometry" />
        </mxCell>
        <mxCell id="u0r1JOzPj--q7MegoqgF-188" value="&lt;font style=&quot;font-size: 8px;&quot;&gt;DRIVER&lt;/font&gt;" style="text;html=1;align=left;verticalAlign=middle;whiteSpace=wrap;rounded=0;rotation=-90;container=0;" parent="u0r1JOzPj--q7MegoqgF-207" vertex="1">
          <mxGeometry x="350" y="70" width="80" height="20" as="geometry" />
        </mxCell>
        <mxCell id="u0r1JOzPj--q7MegoqgF-189" value="&lt;font style=&quot;font-size: 8px;&quot;&gt;DRIVER_OK&lt;/font&gt;" style="text;html=1;align=left;verticalAlign=middle;whiteSpace=wrap;rounded=0;rotation=-90;container=0;" parent="u0r1JOzPj--q7MegoqgF-207" vertex="1">
          <mxGeometry x="330" y="70" width="80" height="20" as="geometry" />
        </mxCell>
        <mxCell id="u0r1JOzPj--q7MegoqgF-190" value="&lt;font style=&quot;font-size: 8px;&quot;&gt;FEATURES_OK&lt;/font&gt;" style="text;html=1;align=left;verticalAlign=middle;whiteSpace=wrap;rounded=0;rotation=-90;container=0;" parent="u0r1JOzPj--q7MegoqgF-207" vertex="1">
          <mxGeometry x="310" y="70" width="80" height="20" as="geometry" />
        </mxCell>
        <mxCell id="u0r1JOzPj--q7MegoqgF-191" value="&lt;font style=&quot;font-size: 8px;&quot;&gt;FAILED&lt;/font&gt;" style="text;html=1;align=left;verticalAlign=middle;whiteSpace=wrap;rounded=0;rotation=-90;container=0;" parent="u0r1JOzPj--q7MegoqgF-207" vertex="1">
          <mxGeometry x="210" y="70" width="80" height="20" as="geometry" />
        </mxCell>
        <mxCell id="u0r1JOzPj--q7MegoqgF-192" value="&lt;font style=&quot;font-size: 8px;&quot;&gt;DEVICE_NEEDS_RESET&lt;/font&gt;" style="text;html=1;align=left;verticalAlign=middle;whiteSpace=wrap;rounded=0;rotation=-90;container=0;" parent="u0r1JOzPj--q7MegoqgF-207" vertex="1">
          <mxGeometry x="220" y="60" width="100" height="20" as="geometry" />
        </mxCell>
        <mxCell id="u0r1JOzPj--q7MegoqgF-205" value="&lt;font style=&quot;font-size: 8px;&quot;&gt;RESET_UNDERWAY&lt;/font&gt;" style="text;html=1;align=left;verticalAlign=middle;whiteSpace=wrap;rounded=0;rotation=-90;container=0;" parent="u0r1JOzPj--q7MegoqgF-207" vertex="1">
          <mxGeometry x="120" y="60" width="100" height="20" as="geometry" />
        </mxCell>
        <mxCell id="2XgWLgAG-Zo4LgoBkulx-1" value="&lt;span style=&quot;font-size: 14px;&quot;&gt;Variables &#39;Status&#39; and &#39;CurStatus&#39; in various &#39;Virtio Device&#39; States&lt;/span&gt;" style="shape=partialRectangle;whiteSpace=wrap;html=1;left=0;right=0;fillColor=none;strokeColor=#4D4D4D;" vertex="1" parent="1">
          <mxGeometry x="174" y="20" width="480" height="40" as="geometry" />
        </mxCell>
        <mxCell id="2XgWLgAG-Zo4LgoBkulx-2" value="&lt;font style=&quot;font-size: 10px;&quot;&gt;VD02IL1&amp;nbsp;ver 1.0&lt;/font&gt;&lt;div&gt;&lt;font style=&quot;font-size: 10px;&quot;&gt;Oct-20-2024&lt;/font&gt;&lt;/div&gt;" style="shape=partialRectangle;whiteSpace=wrap;html=1;left=0;right=0;fillColor=none;strokeColor=#4D4D4D;" vertex="1" parent="1">
          <mxGeometry x="710" y="20" width="90" height="40" as="geometry" />
        </mxCell>
        <mxCell id="2XgWLgAG-Zo4LgoBkulx-3" value="&lt;div&gt;&lt;font style=&quot;font-size: 10px;&quot;&gt;&lt;span style=&quot;background-color: initial;&quot;&gt;©&amp;nbsp;&lt;/span&gt;Nataliya Korovkina&lt;span style=&quot;background-color: initial;&quot;&gt;&amp;nbsp;2024-2025 – CC BY 4.0&lt;/span&gt;&lt;/font&gt;&lt;/div&gt;&lt;div&gt;&lt;font style=&quot;font-size: 10px;&quot;&gt;docs.kernels-abreeze.dev&lt;/font&gt;&lt;/div&gt;" style="shape=partialRectangle;whiteSpace=wrap;html=1;left=0;right=0;fillColor=none;strokeColor=#4D4D4D;" vertex="1" parent="1">
          <mxGeometry x="550" y="1100" width="250" height="40" as="geometry" />
        </mxCell>
      </root>
    </mxGraphModel>
  </diagram>
</mxfile>
